PathFileType	4	(X/Y/Z)	E:\Qualisys_Data\Carbon_Farble_Plate\Data\Amateur_Runner\S14\T1\S14T1V13_c3d.trc
DataRate	CameraRate	NumFrames	NumMarkers	Units	OrigDataRate	OrigDataStartFrame	OrigNumFrames
200.000000	200.000000	4	39	mm	200.000000	127	339
Frame#	Time	LSHO			RSHO			LICST			RICST			LASIS			LHEEL			RASIS			LTROC			RTROC			SACR			LTH1			LSK4			LTH2			LTH3			RHM5			LSK2			LTH4			RTH1			LTOE			RTH2			RTH3			RTH4			LLEP			RLEP			LSK1			LSK3			RSK1			LHM5			RSK2			LFT1			RSK3			RSK4			LLME			RLME			RTOE			RHEEL			RFT1			RFT2			LFT2			
		X1	Y1	Z1	X2	Y2	Z2	X3	Y3	Z3	X4	Y4	Z4	X5	Y5	Z5	X6	Y6	Z6	X7	Y7	Z7	X8	Y8	Z8	X9	Y9	Z9	X10	Y10	Z10	X11	Y11	Z11	X12	Y12	Z12	X13	Y13	Z13	X14	Y14	Z14	X15	Y15	Z15	X16	Y16	Z16	X17	Y17	Z17	X18	Y18	Z18	X19	Y19	Z19	X20	Y20	Z20	X21	Y21	Z21	X22	Y22	Z22	X23	Y23	Z23	X24	Y24	Z24	X25	Y25	Z25	X26	Y26	Z26	X27	Y27	Z27	X28	Y28	Z28	X29	Y29	Z29	X30	Y30	Z30	X31	Y31	Z31	X32	Y32	Z32	X33	Y33	Z33	X34	Y34	Z34	X35	Y35	Z35	X36	Y36	Z36	X37	Y37	Z37	X38	Y38	Z38	X39	Y39	Z39	

128	0.635	-583.0831909179688	1368.1455078125	-599.0640258789062	-579.0460205078125	1385.361083984375	-288.3508605957031	-658.1305541992188	945.5430908203124	-552.3551025390625	-619.5765991210938	935.7404174804688	-273.55517578125	-612.0152587890625	897.1602783203125	-529.2747802734375	-920.9507446289062	102.0291061401367	-408.7869567871094	-597.0440063476562	893.1795654296875	-294.3538208007812	-759.2576293945312	826.039306640625	-555.0431518554688	-736.7400512695312	835.6488037109375	-245.9450836181641	-776.4005126953125	951.7684326171876	-407.0945434570312	-647.3893432617188	603.8084716796875	-560.4609985351562	-792.1861572265625	279.5044555664062	-500.802001953125	-721.3818359375	596.0665283203125	-540.5759887695312	-626.5056762695312	509.0842590332031	-531.8573608398438	-876.0269775390625	195.8402404785156	-263.3128967285156	-741.1513061523438	361.0401000976562	-524.1875	-703.9502563476562	502.2101440429688	-516.7755126953125	-520.9186401367188	646.5131225585938	-243.0426940917969	-669.0219116210938	62.23566055297852	-452.3573913574219	-595.4215087890625	620.5977783203125	-231.8441925048828	-484.5394897460938	554.6896362304688	-267.0619812011719	-561.0669555664062	523.7022094726562	-246.8323669433594	-647.5693969726562	436.1796569824219	-519.2701416015625	-527.9307250976562	471.2535705566406	-255.2571105957031	-669.3256225585938	321.5257263183594	-511.6593627929688	-724.1513061523438	237.7420349121094	-490.7337036132812	-600.2155151367188	392.5584106445312	-260.1219482421875	-741.1742553710938	59.89793395996094	-509.6635437011719	-636.591796875	470.0283508300781	-255.1729736328125	-910.253173828125	74.1626968383789	-383.4115295410156	-696.7195434570312	356.8056030273438	-275.2028503417969	-723.601806640625	431.1093444824219	-270.1653137207031	-855.0836791992188	118.745002746582	-472.2669372558594	-867.8271484375	338.7406005859375	-292.5775451660156	-844.5696411132812	129.5452423095703	-325.9519653320312	-915.9254150390624	379.775390625	-346.4988403320312	-937.247314453125	355.3657531738281	-376.6576232910156	-934.7749633789062	371.5211791992188	-319.5511779785156	-925.9498901367188	74.44759368896484	-436.5627746582031
129	0.64	-564.9606323242188	1371.919555664062	-598.0376586914062	-566.2940673828125	1388.674926757812	-287.5692749023438	-642.4849243164062	947.4298706054688	-552.5322875976562	-604.7667236328125	938.045166015625	-274.1400756835938	-596.4735717773438	899.5638427734375	-530.0586547851562	-921.1102294921876	103.5715484619141	-408.1896362304688	-578.9094848632812	896.146240234375	-295.34521484375	-744.51806640625	828.600830078125	-554.6570434570312	-720.70849609375	839.2741088867188	-245.9799194335938	-760.7153930664062	954.3967895507812	-407.5413818359375	-638.4451293945312	604.7615966796875	-560.0502319335938	-790.0945434570312	281.9599304199219	-500.6609802246094	-712.7515869140625	598.9484252929688	-540.8760986328125	-620.3604125976562	509.8426208496094	-531.6334838867188	-843.865478515625	191.0371551513672	-261.8313293457031	-738.5079956054688	363.1676025390625	-524.1764526367188	-698.415771484375	504.7127685546875	-516.8699951171875	-502.2991027832031	653.017822265625	-243.0311279296875	-668.8403930664062	62.14346694946289	-452.4038696289062	-575.6355590820312	624.4736938476562	-231.7258605957031	-463.7156066894531	562.2298583984375	-267.2108764648438	-539.7840576171875	529.1490478515625	-247.0797729492188	-644.5477294921875	437.1662902832031	-519.5628662109375	-505.0888366699219	478.2900085449219	-254.9080505371094	-667.1597290039062	323.1506042480469	-512.087646484375	-722.6181640625	239.045166015625	-491.2176818847656	-575.7280883789062	396.077392578125	-260.0823364257812	-741.0960083007812	59.93574142456055	-509.7461242675781	-614.1871337890625	472.6771850585938	-255.3190155029297	-912.5389404296876	77.05135345458984	-383.5628967285156	-670.7737426757812	357.581787109375	-274.9078979492188	-699.4436645507812	431.3729858398438	-270.32421875	-854.3233642578125	120.656120300293	-472.6203002929688	-841.2719116210938	333.8328247070312	-291.6123962402344	-810.2393798828125	125.8106842041016	-323.8069152832031	-890.8980102539062	372.9840087890625	-345.5557861328125	-911.455810546875	347.3409423828125	-376.461181640625	-909.6176147460938	364.1954345703125	-318.6904602050781	-923.7548828125	77.48336029052734	-437.4898681640625
130	0.645	-546.9764404296875	1376.10888671875	-596.86669921875	-553.1613159179688	1392.325561523438	-286.8912353515625	-626.4810180664062	950.048583984375	-552.84375	-589.9791259765625	942.2499389648438	-274.6899719238281	-580.8299560546875	901.518310546875	-530.6350708007812	-920.4490356445312	106.4863357543945	-408.3840637207031	-565.464111328125	899.48583984375	-295.3831787109375	-729.1737060546875	831.7222290039062	-554.1695556640625	-704.3381958007812	843.123046875	-245.0749206542969	-744.3172607421875	957.2698364257812	-407.6574096679688	-629.3881225585938	605.9963989257812	-559.8338623046875	-787.9700317382812	285.382568359375	-502.0049438476562	-704.4439086914062	602.6363525390625	-540.5891723632812	-614.5394287109375	510.5018920898438	-531.2969970703125	-811.0350341796875	186.6841278076172	-259.5461120605469	-735.611083984375	365.4167175292969	-523.657470703125	-692.3285522460938	508.0232543945312	-516.625	-483.841796875	659.6609497070312	-243.1216430664062	-668.8449096679688	62.00256729125977	-452.3126220703125	-556.3987426757812	629.9308471679688	-231.7515106201172	-443.3926696777344	569.9461059570312	-267.4151306152344	-518.4150390625	535.278076171875	-247.0934448242188	-640.0949096679688	438.6193542480469	-518.9058227539062	-483.0154113769531	484.4732666015625	-255.4708404541016	-664.8676147460938	324.6314697265625	-511.8267211914062	-720.550537109375	241.1962585449219	-491.6175231933594	-550.928466796875	400.1805419921875	-260.2422790527344	-740.8328247070312	59.86660385131836	-509.8670654296875	-592.0344848632812	475.5332336425781	-255.5753936767578	-909.9132080078124	79.4188232421875	-380.8883666992188	-644.65283203125	358.623291015625	-274.3675537109375	-676.2537841796875	431.3269958496094	-269.8363647460938	-853.5137939453125	123.2822418212891	-472.0158996582031	-814.7023315429688	328.802001953125	-290.8984375	-775.2402954101562	122.7850646972656	-320.9424743652344	-865.581787109375	365.8656005859375	-344.6155700683594	-885.6105346679688	339.5521850585938	-375.4365844726562	-884.152587890625	356.0648498535156	-318.1173400878906	-922.9960327148438	80.21785736083984	-437.10009765625
131	0.65	-529.3360595703125	1380.236083984375	-595.3511962890625	-540.0336303710938	1396.244262695312	-286.2613525390625	-610.53076171875	952.5298461914062	-553.8909301757812	-571.8134765625	944.629150390625	-275.2670593261719	-564.7172241210938	904.0034790039062	-530.8641357421875	-919.3656005859376	109.7930297851562	-408.4853820800781	-549.9365844726562	902.629150390625	-295.9774169921875	-713.333984375	834.3703002929688	-553.7869262695312	-687.384765625	847.6394653320312	-244.4354095458984	-728.4888916015625	960.58447265625	-408.0813293457031	-620.6339111328125	607.746826171875	-559.2168579101562	-785.649169921875	288.4219970703125	-501.8792419433594	-695.0750732421875	606.3111572265625	-540.1683349609375	-608.3394775390625	511.7837219238281	-530.5367431640625	-778.5392456054688	181.8565521240234	-257.6688537597656	-733.0123291015625	368.6759948730469	-523.4544677734375	-686.4046630859375	511.2966613769531	-516.310546875	-465.1580810546875	666.2041015625	-243.6265258789062	-668.6582641601562	62.13085556030273	-452.1853942871094	-537.5206298828125	635.1161499023438	-231.406982421875	-423.0950317382812	577.3639526367188	-268.2122497558594	-497.3791198730469	541.2761840820312	-247.3584136962891	-636.2918090820312	440.9181823730469	-518.6812133789062	-460.828857421875	491.4967041015625	-255.8919982910156	-662.1251220703125	327.2587890625	-511.9244079589844	-718.4939575195312	244.0297546386719	-491.9570007324219	-526.7503662109375	403.328857421875	-262.2880249023438	-740.4885864257812	60.15278625488281	-509.9579772949219	-570.445068359375	478.2665405273438	-255.7425079345703	-908.5232543945312	82.3577651977539	-382.7670288085938	-619.1777954101562	359.0536193847656	-273.9448547363281	-653.02490234375	431.1240844726562	-269.517578125	-852.4092407226562	126.1768417358398	-472.4716186523438	-787.8455810546875	323.8699035644531	-289.4802551269531	-739.8206176757812	119.1067123413086	-318.599853515625	-840.0755004882812	358.3089294433594	-344.0763244628906	-859.41455078125	330.791748046875	-374.1334533691406	-858.6470336914062	347.4869384765625	-317.1643371582031	-922.306640625	83.32947540283203	-437.2203369140625
